<svg width="29" height="32" viewBox="0 0 29 32" fill="none" xmlns="http://www.w3.org/2000/svg">
<path fill-rule="evenodd" clip-rule="evenodd" d="M2.5679 28.801L0 0H28.2171L25.6465 28.7963L14.0915 32L2.5679 28.801Z" fill="#0071BC"/>
<path fill-rule="evenodd" clip-rule="evenodd" d="M14.1323 29.5497L23.4577 26.9843L25.6426 2.39853H14.1323V29.5497Z" fill="#29ABE2"/>
<path fill-rule="evenodd" clip-rule="evenodd" d="M5.87791 12.9799L6.18724 16.507L14.1323 12.9799V9.44702L5.87791 12.9799Z" fill="#B3B3B3"/>
<path fill-rule="evenodd" clip-rule="evenodd" d="M22.9316 5.67587L14.1323 9.44702V12.9799L22.6282 9.20302L22.9316 5.67587Z" fill="#E6E6E6"/>
<path fill-rule="evenodd" clip-rule="evenodd" d="M14.1323 22.2086L14.105 22.2127L10.1648 21.1545L9.90739 18.3411H6.36127L6.85613 23.8837L14.1042 25.8906L14.1323 25.8839V22.2086Z" fill="#E6E6E6"/>
<path fill-rule="evenodd" clip-rule="evenodd" d="M14.1323 12.9799V16.507H18.4461L18.054 21.1185L14.1323 22.2116V25.8867L21.3563 23.8798L22.3075 12.9799H14.1323Z" fill="white"/>
<path fill-rule="evenodd" clip-rule="evenodd" d="M14.1323 12.9799H5.87791L6.18724 16.507H14.1323V12.9799Z" fill="#E6E6E6"/>
<path fill-rule="evenodd" clip-rule="evenodd" d="M14.1323 9.20302V5.67587H14.0964H5.25079L5.56379 9.20302H14.1323Z" fill="#E6E6E6"/>
<path fill-rule="evenodd" clip-rule="evenodd" d="M14.1323 5.67587V9.15878V9.20302H22.6282L22.9316 5.67587H14.1323Z" fill="white"/>
</svg>
