<svg width="32" height="32" viewBox="0 0 32 32" fill="none" xmlns="http://www.w3.org/2000/svg">
<path fill-rule="evenodd" clip-rule="evenodd" d="M31.397 14.5745L17.4251 0.603568C16.621 -0.201189 15.3159 -0.201189 14.5108 0.603568L11.6096 3.50484L15.29 7.18524C16.1453 6.89627 17.1259 7.09008 17.8078 7.77195C18.4928 8.45803 18.6852 9.44712 18.3893 10.3053L21.9362 13.8522C22.7944 13.5566 23.7845 13.7479 24.4699 14.4344C25.4277 15.3919 25.4277 16.9438 24.4699 17.902C23.5117 18.8602 21.9598 18.8602 21.0012 17.902C20.2807 17.1808 20.1027 16.1225 20.4675 15.2349L17.1596 11.9271L17.1593 20.6319C17.3928 20.7478 17.6133 20.9019 17.8078 21.0957C18.7657 22.0532 18.7657 23.6052 17.8078 24.5641C16.8496 25.5219 15.297 25.5219 14.3402 24.5641C13.3823 23.6052 13.3823 22.0532 14.3402 21.0957C14.5768 20.8594 14.8507 20.6807 15.1428 20.5606V11.7747C14.8507 11.6553 14.5772 11.4776 14.3402 11.2396C13.6144 10.5149 13.4399 9.44993 13.8118 8.5588L10.184 4.93037L0.603832 14.5099C-0.201277 15.3153 -0.201277 16.6204 0.603832 17.4252L14.5758 31.3964C15.3802 32.2012 16.6849 32.2012 17.4904 31.3964L31.397 17.4901C32.2018 16.685 32.2018 15.3792 31.397 14.5745" fill="#DE4C36"/>
</svg>
