<svg width="16" height="33" viewBox="0 0 16 33" fill="none" xmlns="http://www.w3.org/2000/svg">
<path fill-rule="evenodd" clip-rule="evenodd" d="M11.7965 31.1746L12.1035 26.0587L12.9513 24.6116C12.9513 24.6116 11.0218 25.4009 7.79154 25.4009C4.56123 25.4009 2.66101 24.6262 2.66101 24.6262L3.61109 26.2048L3.94719 31.1746C3.94719 31.7074 5.70428 32.1393 7.87187 32.1393C10.0393 32.1393 11.7965 31.7074 11.7965 31.1746" fill="#D34A47"/>
<path fill-rule="evenodd" clip-rule="evenodd" d="M10.828 7.28405L11.4724 4.73686L15.0411 0.981791L14.1005 0.180664L10.3224 4.18075L9.57414 7.22397C9.032 7.20564 8.46622 7.19585 7.88414 7.19585C3.90504 7.19585 0.679321 7.64934 0.679321 8.20862C0.679321 8.76795 3.90504 9.22138 7.88414 9.22138C11.8632 9.22138 15.0888 8.76795 15.0888 8.20862C15.0888 7.79677 13.3394 7.44228 10.828 7.28405" fill="#D34A47"/>
<path fill-rule="evenodd" clip-rule="evenodd" d="M10.4531 8.71058C10.4531 8.71058 10.3136 8.74187 9.90302 8.74362C9.49236 8.74532 9.20079 8.74096 9.08464 8.63517C9.05342 8.60677 9.03633 8.55037 9.0365 8.51218C9.03684 8.43949 9.08843 8.39666 9.15417 8.36985L9.21634 8.46738C9.1893 8.47671 9.17386 8.48774 9.1738 8.49951C9.17358 8.55473 9.59369 8.59252 9.91502 8.58844C10.2364 8.58448 10.6247 8.55801 10.6251 8.50358C10.6251 8.48712 10.5957 8.47162 10.5446 8.4594L10.6065 8.36255C10.6898 8.3884 10.7625 8.43836 10.7623 8.5248C10.7615 8.67178 10.5745 8.69412 10.4531 8.71058" fill="white"/>
<path fill-rule="evenodd" clip-rule="evenodd" d="M15.0341 0.989241C15.1238 0.8856 14.9876 0.6205 14.7299 0.397207C14.4721 0.174028 14.1904 0.0770621 14.1005 0.180703C14.0107 0.284345 14.147 0.549444 14.4048 0.772624C14.6624 0.99586 14.9443 1.09294 15.0341 0.989241" fill="#D34A47"/>
<path fill-rule="evenodd" clip-rule="evenodd" d="M11.6248 18.6786C11.5402 17.8648 13.4047 16.6863 12.9262 16.6486C11.8961 16.7075 11.3834 17.8557 10.8652 19.0584C10.6753 19.4991 10.0254 21.3786 9.5992 21.1472C9.17309 20.9159 10.1516 19.3704 10.4259 18.4526C10.1094 18.6846 8.94884 19.5864 8.64974 18.7419C8.16887 19.1503 7.14134 19.3715 7.25726 18.2988C7.00144 18.7519 6.42728 19.3846 5.73811 19.1217C4.83306 18.7765 6.26254 15.8935 6.61799 16.039C6.97349 16.1844 6.54625 16.8411 6.43435 17.0961C6.18826 17.6574 5.90398 18.363 6.0939 18.5074C6.41925 18.7548 7.30461 17.5713 7.3243 17.5453C7.48989 17.3265 7.96165 15.8953 8.34187 16.0596C8.7221 16.224 7.39349 18.1137 7.89025 18.4887C7.99044 18.5644 8.40037 18.442 8.64974 18.1722C8.81109 17.9977 8.75559 17.6111 9.29342 16.3285C9.83126 15.0459 10.3106 13.4487 10.6795 13.5704C11.0483 13.692 10.7443 14.5118 10.612 14.8174C9.99102 16.2517 8.91727 18.6214 9.42366 18.442C9.93004 18.2627 10.1937 18.2521 10.6896 17.6719C11.1854 17.0916 11.1626 16.1358 11.4931 16.1561C11.8237 16.1765 11.7682 16.4829 11.688 16.7163C12.0133 16.3441 13.23 15.5601 13.5237 16.3365C13.8716 17.2558 11.783 18.5836 12.3038 18.5159C12.8115 18.4499 13.6341 17.9289 13.9853 17.4552L14.952 8.76416C14.952 8.76416 13.9792 9.56919 7.79051 9.56919C1.60174 9.56919 0.729614 8.78091 0.729614 8.78091L1.55263 16.7138C1.98949 15.4722 3.02686 12.9608 4.66204 13.0451C5.40586 13.0834 6.39882 14.5157 5.54825 14.5642C5.18822 14.5847 5.15168 13.8493 4.72535 13.7413C4.4177 13.6634 3.98939 13.9135 3.71258 14.1845C3.16054 14.7247 1.97325 16.8563 2.13013 17.919C2.33 19.2739 3.99974 17.4482 4.28227 16.9062C4.48124 16.5244 4.61565 15.3932 5.05081 15.5119C5.48602 15.6306 5.01285 16.798 4.6974 17.8302C4.34303 18.9892 4.15673 20.2118 3.71258 20.0711C3.26837 19.9306 3.99194 18.4344 3.96574 18.1722C3.54824 18.5574 2.77907 19.5326 1.79505 19.0499L2.30618 23.9762C2.30618 23.9762 3.66466 25.0495 7.75697 25.0495C11.8493 25.0495 13.258 23.9929 13.258 23.9929L13.8927 18.2872C13.3735 18.7928 11.73 19.6907 11.6248 18.6786" fill="#D34A47"/>
</svg>
