<svg width="29" height="32" viewBox="0 0 29 32" fill="none" xmlns="http://www.w3.org/2000/svg">
<path fill-rule="evenodd" clip-rule="evenodd" d="M2.56783 28.8012L0 0H28.216L25.6454 28.7967L14.0907 32L2.56783 28.8012Z" fill="#E44D26"/>
<path fill-rule="evenodd" clip-rule="evenodd" d="M14.108 29.5515L23.4447 26.963L25.6414 2.35492H14.108V29.5515Z" fill="#F16529"/>
<path d="M9.43378 13.0369H14.108V16.5692H6.20328L5.25055 5.8873H14.108V9.41968H9.11096L9.43378 13.0369Z" fill="#EBEBEB"/>
<path d="M14.0925 22.2149L14.108 22.2107V25.8859L14.0917 25.8904L6.85599 23.8817L6.36111 18.3354H9.90703L10.1585 21.1526L14.0925 22.2149Z" fill="#EBEBEB"/>
<path d="M14.0958 5.8873H22.9443L22.6281 9.41968H14.0958V5.8873Z" fill="white"/>
<path d="M14.0958 16.5692V13.0369H22.3066L22.2205 13.9854L21.3373 23.8817L14.0958 25.8887V22.2137L18.0354 21.1503L18.4455 16.5692H14.0958Z" fill="white"/>
</svg>
