<svg width="32" height="32" viewBox="0 0 32 32" fill="none" xmlns="http://www.w3.org/2000/svg">
<g clip-path="url(#clip0_603_634)">
<path d="M27.5439 11.9208C28.6829 11.6783 31.2624 9.73763 31.7104 8.71018C28.0014 11.2342 25.643 10.5265 24.4541 10.1696C24.4034 10.1544 24.3549 10.1399 24.3085 10.1262C24.0583 10.0546 23.4792 9.7946 22.9396 9.47028C22.9022 9.44781 22.8654 9.42571 22.8292 9.40395C21.704 8.72845 21.1205 8.37813 20.2165 7.06381C19.7039 6.31908 19.1915 5.13541 19.0234 4.45708C18.7459 3.33562 18.8228 1.61026 19.3502 0.125C17.5997 1.68715 17.3299 4.70486 17.9166 6.7C17.9911 6.95267 18.407 7.94518 18.632 8.30898C20.1449 10.7427 23.0336 12.8815 27.5439 11.9208Z" fill="#21609B"/>
<path d="M24.3259 18.7062C27.2077 18.7261 30.2177 17.3792 32 15.4882C30.4406 19.4467 25.9254 21.9912 19.8701 21.1819C14.8003 20.5035 9.97056 15.4016 9.47291 10.2894C9.10911 6.56895 10.406 4.34839 12.5427 1.655C11.8001 3.06372 11.5226 4.15024 11.4534 4.84325C10.6415 12.8913 17.8823 18.6642 24.3259 18.7062Z" fill="#21609B"/>
<path d="M31.2574 23.6575L31.1141 24.0286C28.673 28.7815 24.3483 31.6979 18.1793 31.8265C15.2955 31.8859 12.5476 31.146 10.7527 30.3412C6.87875 28.6008 3.6206 25.3731 1.84108 21.9245C-0.711476 16.9808 -1.17173 10.1039 4.13573 4.96729C4.17662 4.96729 4.01568 5.24573 3.85475 5.52418C3.69382 5.80262 3.53288 6.08106 3.57377 6.08106L3.42769 6.55635C-0.39695 18.5304 11.3863 28.7916 22.8406 27.6181C25.5934 27.3361 29.1039 25.8284 31.2574 23.6575Z" fill="#21609B"/>
</g>
<defs>
<clipPath id="clip0_603_634">
<rect width="32" height="32" fill="white"/>
</clipPath>
</defs>
</svg>
