<svg width="32" height="32" viewBox="0 0 32 32" fill="none" xmlns="http://www.w3.org/2000/svg">
<path d="M26.9714 21.0759C27.2466 20.9179 27.4166 20.6251 27.4177 20.3078L27.4337 15.1637C27.4347 14.8464 27.6047 14.5537 27.8799 14.3957L30.6684 12.7939C30.9435 12.6359 31.2818 12.6365 31.5564 12.7954C31.8309 12.9542 32 13.2474 32 13.5645V22.9168C32 23.2351 31.8297 23.529 31.5538 23.6875L21.0299 29.7321C20.7564 29.8891 20.4202 29.8895 20.1463 29.733L11.8874 25.0093C11.6105 24.8511 11.4395 24.5567 11.4394 24.2377V19.522C11.4394 19.5167 11.4457 19.5132 11.451 19.5158C11.4554 19.5185 11.4617 19.5158 11.4617 19.5096V19.5043C11.4617 19.5007 11.4634 19.4972 11.467 19.4954L18.269 15.5877C18.2752 15.5842 18.2725 15.5744 18.2654 15.5744C18.2615 15.5744 18.2583 15.5712 18.2583 15.5673L18.2716 10.944C18.2729 10.6258 18.104 10.3312 17.8287 10.1716C17.5534 10.0119 17.2138 10.0116 16.9382 10.1707L11.883 13.0836C11.6084 13.2418 11.2704 13.2418 10.9959 13.0836L5.92461 10.1636C5.64964 10.0052 5.31112 10.0055 5.03637 10.1642C4.76163 10.3229 4.59232 10.6161 4.59213 10.9334V19.2892C4.59234 19.6061 4.42378 19.8992 4.14971 20.0584C3.87564 20.2176 3.53753 20.2188 3.26232 20.0616L0.448015 18.4527C0.170519 18.2942 -0.000533323 17.9989 1.24933e-06 17.6793L0.0248921 3.07448C0.0255815 2.75761 0.194892 2.46507 0.469297 2.30662C0.743701 2.14817 1.08171 2.14777 1.35648 2.30557L10.9968 7.84261C11.2709 8.00004 11.608 8.00004 11.8821 7.84261L21.5197 2.30557C21.7949 2.14753 22.1335 2.14819 22.4081 2.30729C22.6826 2.46639 22.8516 2.7598 22.8513 3.07715V17.6856C22.8514 18.0036 22.6816 18.2975 22.406 18.4562L17.3587 21.363C17.0828 21.5221 16.913 21.8166 16.9137 22.1351C16.9145 22.4537 17.0856 22.7474 17.3623 22.9053L20.1463 24.4902C20.4201 24.646 20.7559 24.6454 21.029 24.4884L26.9714 21.0759ZM27.5554 7.9715C27.5557 8.29154 27.728 8.58673 28.0065 8.74438C28.285 8.90203 28.6267 8.8978 28.9012 8.7333L31.568 7.13326C31.8358 6.9728 31.9998 6.68363 32 6.37146V3.11092C31.9994 2.79105 31.827 2.49615 31.5486 2.33872C31.2701 2.18128 30.9286 2.1856 30.6542 2.35002L27.9874 3.95006C27.7197 4.11052 27.5557 4.39968 27.5554 4.71186V7.97239V7.9715Z" fill="#007FFF"/>
</svg>
