<svg width="32" height="32" viewBox="0 0 32 32" fill="none" xmlns="http://www.w3.org/2000/svg">
<g clip-path="url(#clip0_623_644)">
<path d="M17.6667 5.63337L16.5998 2.4L5.46697 0L0 6.16686L6 9.23337L15.9666 13.733L17.6667 5.63337Z" fill="url(#paint0_linear_623_644)"/>
<path d="M12.3337 9.36641L0 6.16641L3.03314 24.4997L12.1001 24.4663L12.3337 9.36641Z" fill="url(#paint1_linear_623_644)"/>
<path d="M8.6665 11.733L15.5666 5.59999L19.7664 1.89987L27.8331 3.39976L32 13.733L26 19.6996L8.6665 11.733Z" fill="url(#paint2_linear_623_644)"/>
<path d="M22.8334 7.80023L6.49966 7.73349L8.80001 25.6334L9.23338 28.2331L20.0667 32L32 24.8334L22.8334 7.80023Z" fill="url(#paint3_linear_623_644)"/>
<path d="M25.6 6.39999H6.39999V25.6H25.6V6.39999Z" fill="black"/>
<path d="M15.7335 22.24H8.53348V23.4665H15.7335V22.24ZM15.072 14.976L16 13.856C16.64 14.4 17.344 14.72 18.144 14.72C18.784 14.72 19.2 14.464 19.2 14.048V14.016C19.2 13.6 18.944 13.408 17.76 13.088C16.288 12.736 15.36 12.32 15.36 10.88V10.848C15.36 9.536 16.416 8.672 17.888 8.672C18.944 8.672 19.84 8.992 20.576 9.6L19.744 10.784C19.104 10.336 18.464 10.08 17.856 10.08C17.248 10.08 16.928 10.368 16.928 10.72V10.752C16.928 11.232 17.248 11.392 18.496 11.712C19.968 12.096 20.8 12.608 20.8 13.888V13.92C20.8 15.36 19.712 16.16 18.144 16.16C17.056 16.128 15.936 15.744 15.072 14.976ZM8.79999 8.8H11.744C13.472 8.8 14.496 9.824 14.496 11.296V11.328C14.496 12.992 13.216 13.856 11.584 13.856H10.368V16H8.79999V8.8ZM11.648 12.416C12.448 12.416 12.896 11.936 12.896 11.328V11.296C12.896 10.592 12.416 10.208 11.616 10.208H10.4V12.416H11.648Z" fill="white"/>
</g>
<defs>
<linearGradient id="paint0_linear_623_644" x1="8.05349" y1="9.84366" x2="10.7703" y2="4.41371" gradientUnits="userSpaceOnUse">
<stop stop-color="#AF1DF5"/>
<stop offset="0.21" stop-color="#BC20E4"/>
<stop offset="0.63" stop-color="#DD29B8"/>
<stop offset="1" stop-color="#FF318C"/>
</linearGradient>
<linearGradient id="paint1_linear_623_644" x1="1.03223" y1="21.9552" x2="14.3991" y2="4.29761" gradientUnits="userSpaceOnUse">
<stop offset="0.02" stop-color="#6B57FF"/>
<stop offset="0.42" stop-color="#B74AF7"/>
<stop offset="0.75" stop-color="#FF318C"/>
</linearGradient>
<linearGradient id="paint2_linear_623_644" x1="24.2468" y1="21.7906" x2="16.3003" y2="2.93759" gradientUnits="userSpaceOnUse">
<stop stop-color="#293896"/>
<stop offset="0.08" stop-color="#3B3AA2"/>
<stop offset="0.29" stop-color="#6740C0"/>
<stop offset="0.49" stop-color="#8A44D8"/>
<stop offset="0.68" stop-color="#A347E9"/>
<stop offset="0.86" stop-color="#B249F3"/>
<stop offset="1" stop-color="#B74AF7"/>
</linearGradient>
<linearGradient id="paint3_linear_623_644" x1="22.8773" y1="28.0151" x2="10.8041" y2="10.3259" gradientUnits="userSpaceOnUse">
<stop offset="0.02" stop-color="#6B57FF"/>
<stop offset="0.78" stop-color="#B74AF7"/>
</linearGradient>
<clipPath id="clip0_623_644">
<rect width="32" height="32" fill="white"/>
</clipPath>
</defs>
</svg>
