<svg width="28" height="32" viewBox="0 0 28 32" fill="none" xmlns="http://www.w3.org/2000/svg">
<path fill-rule="evenodd" clip-rule="evenodd" d="M8.60454 19.5813C8.09595 19.8993 7.32967 20.4146 6.73685 20.975C5.76363 21.8941 5.55998 23.169 6.07338 23.4668C6.54829 23.7421 7.65703 23.4145 8.45054 22.5491C9.28333 21.6404 9.62676 20.4884 9.27206 19.1807C9.23039 19.2056 9.18948 19.2305 9.14934 19.2537L9.15022 19.2554L9.0964 19.286C8.88936 19.4096 8.72015 19.5115 8.60454 19.5813ZM22.8967 19.1687C22.6086 19.7948 22.5942 19.9962 22.6817 20.0589C23.0997 19.9087 23.7913 19.5468 23.7968 18.577C23.7976 18.4317 23.7656 18.2759 23.7142 18.113C23.2673 18.5087 23.0097 18.923 22.8967 19.1687ZM27.3822 17.2758C26.2655 17.1456 25.3941 17.3022 24.7178 17.584C24.843 17.9099 24.9393 18.2494 24.9528 18.5914C24.9842 19.3421 24.4676 19.8976 23.9291 20.2942C23.6146 20.5254 23.2801 20.6795 22.9992 20.7726C22.7746 20.8673 22.4762 20.9652 22.2643 20.922C21.7973 20.8271 21.5487 20.4122 21.8664 19.4971C22.038 19.0018 22.533 18.2479 23.3321 17.5985C23.15 17.2236 22.947 16.8415 22.8435 16.4905C22.6397 15.7986 22.5781 15.3804 22.5781 15.3804C22.5781 15.3804 21.9194 16.7459 21.0697 17.9878C21.0207 18.06 20.9718 18.1307 20.9228 18.2013C21.0897 18.5891 21.2212 18.9993 21.239 19.4128C21.2703 20.1634 20.9453 20.7309 20.4061 21.1266C20.1142 21.3419 19.8028 21.4905 19.5356 21.5851C19.3648 21.6597 19.0173 21.7824 18.5231 21.8155C18.2529 21.834 17.9929 21.8172 17.8477 21.7072C17.6479 21.5563 17.6238 21.37 17.7273 21.1155C17.8148 20.8995 18.4694 20.1522 19.0183 19.4979C19.1699 19.3172 19.3142 19.1326 19.4434 18.9617L19.4402 18.9543C19.4402 18.9543 19.5397 18.826 19.701 18.602C19.5004 18.1701 19.2461 17.7205 19.1265 17.3127C18.9227 16.6208 18.861 16.2025 18.861 16.2025C18.861 16.2025 18.1934 17.9141 17.4978 19.2804C16.9596 20.3386 16.6001 20.9799 16.4381 21.2608L16.4365 21.2721C16.4365 21.2721 16.4123 21.3131 16.3706 21.3773L16.3394 21.4294L16.3386 21.4246C16.158 21.6912 15.7529 22.2137 15.3501 22.2137C14.2446 22.2137 14.6505 19.9683 14.6505 19.9683C14.6505 19.9683 14.3273 20.8 13.9629 21.5137C13.6662 22.0957 13.3958 22.5888 12.8045 22.5888C12.6345 22.5888 12.3649 22.5838 12.141 22.371C11.6331 21.8885 11.2449 20.6634 11.321 19.7146C11.386 18.9078 11.5103 18.3491 11.6804 17.8828C11.3771 18.0481 11.0265 18.244 10.6695 18.4536L10.1207 18.777L10.1384 18.8092C10.5924 19.6875 10.7136 21.6117 9.72356 23.0888C8.73361 24.5667 6.89074 25.4659 5.09524 24.9666C4.51588 24.8051 3.64066 23.6066 4.39557 21.936C5.06144 20.4628 7.72265 19.0701 8.42397 18.7225L8.61647 18.6165C7.21821 17.393 3.72652 15.7425 3.23718 13.2073C3.09915 12.4937 3.43372 10.787 5.52924 8.82499C7.29182 7.17528 9.74369 5.91167 12.0086 5.10645C15.8138 3.75381 19.8342 4.5517 20.4527 6.97775C21.0608 9.36366 18.991 12.2176 16.3402 13.2435C13.9734 14.1594 12.0166 14.0142 11.2127 13.7502C10.2989 13.4499 9.76294 12.8469 9.63223 12.5066C9.58083 12.3733 9.49245 12.1494 9.63223 12.0723C9.71798 12.025 9.75244 12.0362 9.98191 12.2899C10.2002 12.5307 11.0778 13.177 12.745 12.9899C17.1201 12.4994 19.7555 9.09799 18.9227 7.2676C18.3395 5.98638 14.9674 5.40833 10.7545 7.50921C5.61182 10.0733 5.3327 12.1871 5.28862 12.9899C5.16819 15.1983 8.01228 16.36 9.55119 18.0023L9.61047 18.0674C9.89845 17.9085 10.2026 17.7407 10.501 17.577C11.2769 17.1506 12.0086 16.7508 12.3495 16.5645C12.8912 15.7772 13.9902 14.9084 14.7837 14.9084C16.0521 14.9084 15.6165 16.7316 15.6165 16.7316C15.6165 16.7316 15.6422 16.6482 15.6766 16.6474C15.7127 16.6464 15.8524 16.4072 16.244 16.55C16.6467 16.6978 16.5551 16.9804 16.5576 17.0093C16.5625 17.0654 16.0819 18.6863 15.8821 19.7259C15.7866 20.222 15.8419 20.5834 15.8701 20.5834C15.9094 20.5834 15.9897 20.4573 16.0643 20.3216L16.0626 20.3176C16.0626 20.3176 16.1187 20.2149 16.2127 20.0303L16.2312 19.9916L16.2319 19.9934C16.3427 19.7766 16.4983 19.4579 16.678 19.0629C17.0301 18.2867 18.3739 15.2898 18.4879 14.9583C18.6018 14.6268 18.6612 14.284 18.7174 14.137C18.7727 13.9901 19.2477 13.8793 19.8028 13.8834C20.358 13.8874 20.4143 14.1242 20.4182 14.1732C20.4222 14.2221 20.1542 14.8797 20.0924 15.3444C20.0315 15.8092 20.0901 16.0411 20.1407 16.4314C20.1736 16.6865 20.3332 17.0102 20.5218 17.377C21.0963 16.4377 22.107 14.6411 22.2041 14.1378C22.2706 13.7935 22.3774 13.4635 22.4336 13.3165C22.4897 13.1696 22.964 13.0589 23.5191 13.0628C24.0742 13.0669 24.1303 13.3037 24.1344 13.3527C24.1384 13.4017 23.8696 14.0591 23.8087 14.524C23.7476 14.988 23.8064 15.2208 23.8568 15.611C23.9002 15.9449 24.1585 16.3936 24.4145 16.9041C25.1132 16.5597 25.9356 16.3286 26.8984 16.3238C27.2971 16.3215 27.7601 16.3615 27.9992 16.4361V8.75586C27.9992 8.21402 27.7215 7.71472 27.2522 7.44424L14.7236 0.202946C14.2552 -0.0676485 13.6815 -0.0676485 13.213 0.202946L0.718923 7.44074C0.25036 7.71133 0 8.2115 0 8.75247V23.2413C0 23.7823 0.251891 24.2824 0.719689 24.5529L13.2338 31.7964C13.7023 32.0679 14.2704 32.0679 14.7388 31.7964L27.2587 24.5529C27.7271 24.2816 28 23.7822 28 23.2413V17.3858C27.8411 17.339 27.6085 17.3021 27.3822 17.2758ZM13.9037 16.517C13.6349 16.818 13.1769 17.5943 12.9626 18.2439C12.5366 19.5339 12.7211 20.8449 13.0228 20.9236C13.3749 21.0158 13.9527 19.2915 14.2293 18.6171C14.4026 18.1948 15.0766 16.3205 14.9289 16.07C14.8137 15.8741 14.3361 16.0323 13.9037 16.517ZM18.7777 20.8649C18.7777 20.8649 18.6928 20.9453 18.7295 20.9677C18.7793 20.9975 18.8868 20.9588 19.0039 20.8978C19.3353 20.6892 20.079 20.1689 20.0806 19.3991C20.0806 19.3766 20.0797 19.355 20.0782 19.3317C19.9057 19.5581 19.7468 19.7596 19.6097 19.9305C19.3754 20.2219 18.7777 20.8649 18.7777 20.8649Z" fill="#CC6699"/>
</svg>
