<svg width="33" height="32" viewBox="0 0 33 32" fill="none" xmlns="http://www.w3.org/2000/svg">
<g clip-path="url(#clip0_603_682)">
<mask id="mask0_603_682" style="mask-type:alpha" maskUnits="userSpaceOnUse" x="0" y="0" width="33" height="32">
<path d="M22.7814 31.8243C23.2874 32.0214 23.8644 32.0087 24.3752 31.763L30.9895 28.5804C31.6845 28.2459 32.1265 27.5424 32.1265 26.7707V5.19018C32.1265 4.41849 31.6845 3.71508 30.9895 3.38064L24.3752 0.197861C23.7049 -0.124652 22.9205 -0.0456561 22.3323 0.382007C22.2482 0.4431 22.1681 0.511311 22.0931 0.586482L9.43075 12.1385L3.91531 7.95187C3.40188 7.56214 2.68373 7.59406 2.20688 8.02783L0.437894 9.63698C-0.145389 10.1676 -0.146058 11.0852 0.436449 11.6166L5.21962 15.9804L0.436449 20.3442C-0.146058 20.8757 -0.145389 21.7933 0.437894 22.3239L2.20688 23.9329C2.68373 24.3668 3.40188 24.3987 3.91531 24.009L9.43075 19.8223L22.0931 31.3744C22.2934 31.5748 22.5286 31.7258 22.7814 31.8243ZM24.0997 8.68734L14.4919 15.9804L24.0997 23.2735V8.68734Z" fill="white"/>
</mask>
<g mask="url(#mask0_603_682)">
<path d="M31.0091 3.38559L24.3897 0.198429C23.6235 -0.170483 22.7078 -0.0148676 22.1064 0.58645L0.436714 20.3442C-0.146147 20.8757 -0.145477 21.7933 0.43816 22.3239L2.20821 23.9329C2.68537 24.3668 3.40396 24.3987 3.91769 24.009L30.0131 4.21242C30.8885 3.54828 32.146 4.17269 32.146 5.27157V5.19471C32.146 4.42336 31.7041 3.72021 31.0091 3.38559Z" fill="#0065A9"/>
<path d="M31.0091 28.5752L24.3897 31.7624C23.6235 32.1312 22.7078 31.9756 22.1064 31.3744L0.436714 11.6166C-0.146147 11.0852 -0.145477 10.1675 0.43816 9.63696L2.20821 8.02781C2.68537 7.59404 3.40396 7.5621 3.91769 7.95185L30.0131 27.7483C30.8885 28.4125 32.146 27.7881 32.146 26.6892V26.7661C32.146 27.5374 31.7041 28.2405 31.0091 28.5752Z" fill="#007ACC"/>
<path d="M24.3689 31.765C23.6025 32.1335 22.6868 31.9778 22.0854 31.3764C22.8264 32.1173 24.0933 31.5925 24.0933 30.5447V1.42019C24.0933 0.372316 22.8264 -0.152468 22.0854 0.588497C22.6868 -0.0128763 23.6025 -0.168711 24.3689 0.199875L30.9872 3.38266C31.6827 3.7171 32.125 4.42051 32.125 5.19219V26.7728C32.125 27.5445 31.6827 28.2479 30.9872 28.5823L24.3689 31.765Z" fill="#1F9CF0"/>
<path d="M22.7815 31.8241C23.2875 32.0211 23.8645 32.0086 24.3751 31.7629L30.9894 28.5801C31.6845 28.2457 32.1265 27.5423 32.1265 26.7706V5.19C32.1265 4.41832 31.6845 3.71491 30.9895 3.38047L24.3751 0.197694C23.705 -0.12482 22.9205 -0.0458241 22.3322 0.381839C22.2482 0.442932 22.1682 0.511143 22.093 0.586314L9.43074 12.1384L3.91531 7.9517C3.40189 7.56197 2.68372 7.5939 2.20687 8.02766L0.437894 9.63681C-0.145389 10.1674 -0.146058 11.085 0.436449 11.6165L5.21963 15.9802L0.436449 20.344C-0.146058 20.8755 -0.145389 21.7931 0.437894 22.3237L2.20687 23.9328C2.68372 24.3666 3.40189 24.3985 3.91531 24.0089L9.43074 19.8221L22.093 31.3742C22.2933 31.5746 22.5286 31.7256 22.7815 31.8241ZM24.0998 8.68717L14.492 15.9802L24.0998 23.2733V8.68717Z" fill="url(#paint0_linear_603_682)" fill-opacity="0.25"/>
</g>
</g>
<defs>
<linearGradient id="paint0_linear_603_682" x1="16.0633" y1="-0.000167972" x2="16.0633" y2="31.9607" gradientUnits="userSpaceOnUse">
<stop stop-color="white"/>
<stop offset="1" stop-color="white" stop-opacity="0"/>
</linearGradient>
<clipPath id="clip0_603_682">
<rect width="32.252" height="32" fill="white"/>
</clipPath>
</defs>
</svg>
