<svg width="32" height="32" viewBox="0 0 32 32" fill="none" xmlns="http://www.w3.org/2000/svg">
<path d="M16.0154 0L30.1558 7.99867V24.0013L16.0154 32L1.875 24.0013V7.99867L16.0154 0Z" fill="white"/>
<path d="M27.632 23.4464L16.4851 29.7589V24.8497L23.4326 21.0238L27.632 23.4464ZM28.3951 22.758V9.56744L24.3184 11.9206V20.4049L28.3951 22.758ZM4.3564 23.4464L15.5033 29.7535V24.8444L8.55583 21.0238L4.3564 23.4464ZM3.59335 22.758V9.56744L7.67006 11.9206V20.4049L3.59335 22.758ZM4.06826 8.71368L15.5033 2.24644V6.99549L8.17698 11.0242L8.11828 11.0562L4.06826 8.71368ZM27.9148 8.71368L16.4851 2.24644V6.99549L23.8061 11.0295L23.8648 11.0615L27.9148 8.71368Z" fill="#8ED6FB"/>
<path d="M15.5032 23.7292L8.65176 19.9567V12.4916L15.5032 16.4456V23.7292ZM16.485 23.7292L23.3364 19.962V12.4916L16.485 16.4456V23.7292ZM9.11066 11.6272L15.9941 7.84393L22.8722 11.6272L15.9941 15.5971L9.11066 11.6272Z" fill="#1C78C0"/>
</svg>
