<svg width="32" height="32" viewBox="0 0 32 32" fill="none" xmlns="http://www.w3.org/2000/svg">
<path d="M4.29989 28.9335L0 3.36686L7.96663 0.033371L13.0665 3.06651L17.7335 0.566857L27.4665 4.29989L22 32L4.29989 28.9335Z" fill="url(#paint0_linear_622_619)"/>
<path d="M32 10.8334L27.8665 0.633143L20.3666 0L8.79999 11.0999L11.9332 25.4331L17.7335 29.4999L32 21.0336L28.5001 14.5001L32 10.8334Z" fill="url(#paint1_linear_622_619)"/>
<path d="M25.6 9.30011L28.5001 14.5001L32 10.8334L29.4331 4.50011L25.6 9.30011Z" fill="url(#paint2_linear_622_619)"/>
<path d="M25.6 6.4H6.40002V25.6H25.6V6.4Z" fill="black"/>
<path d="M15.7335 22.24H8.53348V23.4665H15.7335V22.24ZM15.616 8.8L14.528 12.992L13.312 8.8H12.096L10.88 12.992L9.79199 8.8H8.12799L10.176 16H11.52L12.704 11.84L13.856 16H15.232L17.28 8.8H15.616ZM17.6 14.976L18.528 13.856C19.168 14.4 19.872 14.72 20.672 14.72C21.312 14.72 21.728 14.464 21.728 14.048V14.016C21.728 13.6 21.472 13.408 20.288 13.088C18.848 12.704 17.888 12.32 17.888 10.88V10.848C17.888 9.536 18.944 8.672 20.416 8.672C21.472 8.672 22.368 8.992 23.104 9.6L22.272 10.784C21.632 10.336 20.992 10.08 20.384 10.08C19.776 10.08 19.456 10.368 19.456 10.72V10.752C19.456 11.232 19.776 11.392 21.024 11.712C22.496 12.096 23.328 12.608 23.328 13.888V13.92C23.328 15.36 22.24 16.16 20.672 16.16C19.552 16.128 18.464 15.744 17.6 14.976Z" fill="white"/>
<defs>
<linearGradient id="paint0_linear_622_619" x1="11.4597" y1="0.667428" x2="19.7408" y2="30.48" gradientUnits="userSpaceOnUse">
<stop offset="0.285" stop-color="#07C3F2"/>
<stop offset="0.941" stop-color="#087CFA"/>
</linearGradient>
<linearGradient id="paint1_linear_622_619" x1="14.0434" y1="4.44983" x2="28.0526" y2="24.9925" gradientUnits="userSpaceOnUse">
<stop offset="0.14" stop-color="#FCF84A"/>
<stop offset="0.366" stop-color="#07C3F2"/>
</linearGradient>
<linearGradient id="paint2_linear_622_619" x1="27.9232" y1="6.98971" x2="29.7627" y2="13.5058" gradientUnits="userSpaceOnUse">
<stop offset="0.285" stop-color="#07C3F2"/>
<stop offset="0.941" stop-color="#087CFA"/>
</linearGradient>
</defs>
</svg>
